<?xml version="1.0" encoding="utf-8"?>
<svg width="16" height="16" viewBox="0 0 16 16" fill="none" xmlns="http://www.w3.org/2000/svg">
  <g id="Layer_1" style="transform-origin: 7.28992px 6.47992px;" transform="matrix(0.01977, 0, 0, 0.01977, 0.156295, 1.589038)">
    <path style="fill: rgb(109, 200, 42); stroke-width: 1.563;" d="M -133.26 -273.43 C -134.12 -269.59 -141.41 -234.74 -132.29 -196.48 C -124.11 -162.15 -96.591 -103.84 -4.247 -98.96 C 8.681 -98.277 20.364 -106.63 23.898 -119.08 C 24.942 -122.76 33.822 -156.06 24.809 -193.86 C 24.809 -193.86 24.808 -193.86 24.808 -193.86 C 18.816 -218.99 6.394 -240.19 -12.114 -256.87 C -34.26 -276.82 -64.63 -289.6 -102.38 -294.84 C -116.68 -296.83 -130.11 -287.52 -133.26 -273.43 Z"/>
    <path style="fill: rgb(94, 172, 36); stroke-width: 1.563;" d="M -81.479 -230.19 C -87.252 -254.41 -86.451 -277.25 -84.865 -291.73 C -90.519 -292.96 -96.344 -294.01 -102.38 -294.85 C -116.68 -296.83 -130.11 -287.52 -133.26 -273.44 C -134.12 -269.59 -141.41 -234.74 -132.29 -196.48 C -124.11 -162.15 -96.591 -103.85 -4.247 -98.962 C 8.681 -98.279 20.364 -106.63 23.898 -119.09 C 24.294 -120.48 25.809 -126.11 27.053 -134.63 C -49.749 -146.1 -73.902 -198.42 -81.479 -230.19 Z"/>
    <path style="fill: rgb(109, 200, 42); stroke-width: 1.563;" d="M -306.83 -6.377 C -306.96 -2.436 -307.68 33.162 -291.64 69.075 C -277.26 101.292 -239.43 153.508 -147.78 141.236 C -134.95 139.517 -125.01 129.147 -123.84 116.255 C -123.5 112.452 -120.93 78.083 -136.77 42.603 C -136.77 42.6 -136.77 42.598 -136.77 42.598 C -147.31 19.009 -163.43 0.475 -184.7 -12.494 C -210.16 -28.01 -242.37 -34.952 -280.44 -33.127 C -294.85 -32.438 -306.33 -20.804 -306.83 -6.377 Z"/>
    <path style="fill: rgb(94, 172, 36); stroke-width: 1.563;" d="M -240.83 35.358 C -253.28 7.487 -255.63 -20.183 -256 -33.027 C -263.85 -33.483 -271.99 -33.535 -280.44 -33.13 C -294.85 -32.44 -306.33 -20.804 -306.82 -6.377 C -306.96 -2.436 -307.68 33.162 -291.64 69.075 C -277.25 101.292 -239.43 153.508 -147.78 141.236 C -134.95 139.517 -125.01 129.147 -123.84 116.255 C -123.76 115.397 -123.57 112.972 -123.5 109.341 C -196.13 109.275 -227.92 64.27 -240.83 35.358 Z"/>
    <path style="fill: rgb(109, 200, 42); stroke-width: 1.563;" d="M 126.13 187.477 C 124.277 183.997 107.102 152.806 75.256 129.725 C 46.686 109.019 -12.178 82.711 -85.415 139.167 C -95.669 147.074 -99.09 161.02 -93.655 172.772 C -92.052 176.238 -77.093 207.288 -45.633 230.093 C -45.632 230.094 -45.628 230.096 -45.628 230.096 C -24.71 245.257 -1.477 253.244 23.43 253.84 C 53.231 254.551 84.595 244.457 116.653 223.841 C 128.794 216.032 132.916 200.216 126.13 187.477 Z"/>
    <path style="fill: rgb(94, 172, 36); stroke-width: 1.563;" d="M 43.511 200.993 C 18.605 200.399 -4.628 192.411 -25.547 177.249 C -25.547 177.249 -25.549 177.247 -25.552 177.246 C -48.607 160.535 -62.791 139.408 -69.36 127.941 C -74.63 131.255 -79.982 134.977 -85.415 139.167 C -95.669 147.074 -99.09 161.02 -93.655 172.772 C -92.052 176.238 -77.093 207.286 -45.632 230.093 C -45.63 230.094 -45.627 230.096 -45.627 230.096 C -24.708 245.257 -1.475 253.244 23.431 253.84 C 53.233 254.551 84.597 244.457 116.655 223.841 C 128.796 216.033 132.918 200.218 126.132 187.478 C 125.657 186.585 124.161 183.853 121.674 179.908 C 94.856 194.486 68.627 201.593 43.511 200.993 Z"/>
    <path style="fill: rgb(109, 200, 42); stroke-width: 1.563;" d="M 238.551 34.864 C 234.979 36.534 202.521 51.172 163.196 50.515 C 127.918 49.928 65.045 35.636 40.358 -53.479 C 36.902 -65.957 42.537 -79.165 53.938 -85.304 C 57.3 -87.115 87.902 -102.97 126.753 -102.32 C 126.757 -102.32 126.758 -102.32 126.758 -102.32 C 152.589 -101.89 175.966 -94.334 196.243 -79.862 C 220.505 -62.541 239.532 -35.643 252.798 0.09 C 257.823 13.623 251.626 28.745 238.551 34.864 Z"/>
    <path style="fill: rgb(94, 172, 36); stroke-width: 1.563;" d="M 194.904 -2.329 C 161.272 -2.89 102.566 -15.904 75.769 -94.32 C 63.563 -90.332 55.564 -86.177 53.939 -85.304 C 42.541 -79.165 36.903 -65.958 40.359 -53.479 C 65.049 35.636 127.919 49.929 163.197 50.515 C 202.524 51.17 234.982 36.534 238.552 34.864 C 251.627 28.747 257.824 13.623 252.799 0.09 C 251.507 -3.393 250.141 -6.765 248.741 -10.079 C 235.005 -6.004 215.94 -1.979 194.904 -2.329 Z"/>
    <path style="fill: rgb(160, 129, 92); stroke-width: 1.563;" d="M -193.46 393.81 C -195.32 393.81 -197.2 393.59 -199.08 393.135 C -211.85 390.039 -219.69 377.184 -216.59 364.421 C -192.98 267.043 -156.13 170.817 -107.07 78.419 C -67.886 4.614 -20.858 -66.935 32.703 -134.24 C 124.053 -249.03 201.991 -311.12 205.265 -313.7 C 215.566 -321.85 230.523 -320.09 238.666 -309.79 C 246.807 -299.49 245.06 -284.54 234.765 -276.4 C 233.969 -275.77 157.055 -214.36 69.025 -103.5 C -11.899 -1.596 -119.12 164.249 -170.37 375.628 C -173.01 386.507 -182.74 393.809 -193.46 393.81 Z"/>
    <path style="fill: rgb(109, 200, 42); stroke-width: 1.563;" d="M 297.263 -380.6 C 293.354 -381.11 257.988 -385.24 220.704 -372.72 C 187.254 -361.49 131.653 -328.85 135.078 -236.44 C 135.558 -223.5 144.927 -212.62 157.649 -210.21 C 161.402 -209.5 195.366 -203.65 232.202 -216.02 C 232.205 -216.02 232.207 -216.02 232.207 -216.02 C 256.698 -224.25 276.693 -238.52 291.642 -258.45 C 309.528 -282.3 319.528 -313.69 321.362 -351.76 C 322.057 -366.18 311.576 -378.72 297.263 -380.6 Z"/>
    <path style="fill: rgb(94, 172, 36); stroke-width: 1.563;" d="M 267.207 -331.17 C 286.979 -337.81 306.212 -339.77 320.499 -340.06 C 320.868 -343.89 321.17 -347.78 321.362 -351.75 C 322.057 -366.17 311.578 -378.71 297.265 -380.59 C 293.356 -381.1 257.99 -385.23 220.705 -372.71 C 187.255 -361.48 131.655 -328.84 135.08 -236.43 C 135.56 -223.49 144.929 -212.61 157.65 -210.21 C 159.48 -209.86 168.508 -208.29 181.54 -208.21 C 183.676 -290.45 235.423 -320.5 267.207 -331.17 Z"/>
    <path d="M -76.724 24.245 C -71.011 28.311 -62.632 23.914 -60.397 20.215 C -53.018 7.996 -45.314 -4.308 -37.507 -16.357 C -33.935 -21.869 -35.508 -29.23 -41.018 -32.802 C -46.527 -36.369 -53.891 -34.799 -57.463 -29.291 C -65.408 -17.032 -73.244 -4.511 -80.754 7.92 C -84.149 13.54 -82.074 20.436 -76.724 24.245 Z" style="stroke-width: 1.563;"/>
    <path d="M 275.401 -257.45 C 271.595 -253.27 267.435 -249.38 263.04 -245.88 C 257.904 -241.78 257.532 -234.65 261.146 -229.17 C 266.273 -221.38 275.667 -225.53 277.854 -227.27 C 283.237 -231.56 288.324 -236.32 292.981 -241.43 C 297.404 -246.29 297.054 -253.81 292.199 -258.23 C 287.346 -262.65 279.824 -262.3 275.401 -257.45 Z" style="stroke-width: 1.563;"/>
    <path d="M 298.807 -392.38 C 294.618 -392.93 256.738 -397.36 216.918 -383.99 C 199.532 -378.15 174.666 -366.24 154.939 -342.65 C 135.524 -319.42 124.932 -289.77 123.291 -254.34 C 123.103 -254.17 122.914 -254.01 122.736 -253.83 C 94.617 -225.38 67.095 -194.84 40.645 -162.85 C 40.645 -162.85 53.042 -291.54 -100.74 -306.63 C -121.1 -308.62 -140.39 -296 -144.87 -276.03 C -145.79 -271.91 -153.6 -234.56 -143.86 -193.72 C -139.6 -175.88 -129.97 -150.04 -108.24 -128.28 C -85.661 -105.66 -55.05 -92.198 -17.185 -88.109 C -22.169 -81.207 -27.085 -74.282 -31.913 -67.34 C -35.661 -61.948 -34.328 -54.538 -28.938 -50.79 C -26.869 -49.352 -17.506 -46.596 -12.388 -53.765 C 5.134 -78.302 23.125 -103.11 42.009 -126.83 C 68.866 -160.58 97.022 -192.84 125.891 -222.96 C 128.88 -215.29 134.199 -208.8 141.061 -204.32 C 112.897 -174.84 85.588 -143.47 59.716 -110.89 C -21.949 -8.054 -130.16 159.345 -181.93 372.826 C -183.22 378.181 -188.2 383.167 -196.28 381.581 C -202.71 380.318 -206.58 373.593 -205.03 367.224 C -181.66 270.808 -145.16 175.513 -96.568 83.995 C -92.268 75.898 -87.813 67.715 -83.325 59.679 C -80.124 53.947 -82.177 46.703 -87.913 43.503 C -93.641 40.304 -100.89 42.354 -104.09 48.09 C -108 55.09 -111.86 62.192 -115.64 69.262 C -117.81 59.329 -134.82 -53.335 -281 -45.004 C -301.43 -43.838 -318.7 -27.247 -318.7 -6.785 C -318.7 163.464 -162.98 154.689 -157.17 154.195 C -187.35 222.086 -211.15 291.548 -228.15 361.62 C -232.78 380.732 -220.76 399.181 -201.88 404.692 C -176.04 412.231 -162.71 394.484 -158.81 378.429 C -142.65 311.776 -120.86 249.696 -96.074 192.763 C -15.919 316.051 90.135 255.032 123.086 233.841 C 140.297 222.772 146.246 199.95 136.628 181.888 C 134.644 178.16 116.25 144.749 82.235 120.098 C 56.508 101.452 7.434 78.003 -54.319 106.25 C -25.825 52.59 4.408 4.926 33.367 -36.069 C 91.092 115.505 239.846 47.386 243.591 45.634 C 262.126 36.959 271.066 15.139 263.946 -4.047 C 249.838 -42.049 229.384 -70.812 203.152 -89.538 C 180.874 -105.44 155.238 -113.74 126.955 -114.21 L 126.849 -114.21 C 113.344 -114.41 100.821 -112.8 89.883 -110.44 C 114.572 -140.67 140.471 -169.7 167.069 -197 C 204.179 -188.62 236.998 -205.12 237.523 -205.38 C 243.395 -208.32 245.109 -215.17 242.84 -221.34 C 239.321 -230.9 228.574 -227.34 228.574 -227.34 C 228.48 -227.31 228.388 -227.28 228.296 -227.25 C 193.344 -214.78 161.822 -221.52 159.852 -221.9 C 152.538 -223.28 147.235 -229.44 146.958 -236.88 C 143.974 -317.31 187.472 -349.01 224.485 -361.45 C 259.241 -373.11 292.082 -369.28 295.715 -368.8 C 303.829 -367.74 309.876 -360.5 309.482 -352.33 C 308.36 -329.03 303.993 -308.3 296.504 -290.73 C 293.929 -284.69 296.738 -277.71 302.781 -275.13 C 308.824 -272.55 315.806 -275.37 318.381 -281.41 C 326.978 -301.58 331.975 -325.06 333.234 -351.19 C 334.223 -371.63 319.099 -389.72 298.807 -392.38 Z M -120.73 -199.24 C -130.66 -234.51 -122.46 -267.26 -121.66 -270.84 C -119.87 -278.82 -112.12 -284.19 -104.02 -283.07 C -68.663 -278.16 -40.421 -266.37 -20.074 -248.04 C -3.511 -233.11 7.656 -214.12 13.123 -191.6 L 13.241 -191.1 C 19.35 -165.47 16.547 -142.07 14.198 -129.94 C 9.32 -123.68 4.489 -117.37 -0.291 -111.02 C -1.381 -110.84 -96.377 -112.79 -120.73 -199.24 Z M -280.79 64.226 C -296.77 31.209 -295.07 -2.308 -294.94 -5.969 C -294.66 -14.147 -288.04 -20.861 -279.87 -21.254 C -244.23 -22.958 -214.28 -16.6 -190.9 -2.343 C -171.72 9.346 -157.16 26.095 -147.63 47.443 L -147.56 47.595 C -136.63 72.142 -135.31 96.458 -135.37 107.612 C -138.77 114.505 -142.09 121.419 -145.36 128.347 C -146.63 128.881 -242.63 143.069 -280.79 64.226 Z M 68.277 139.353 C 96.855 162.324 113.914 189.833 115.635 193.063 C 119.48 200.288 117.103 209.413 110.221 213.838 C 80.199 233.146 51.042 242.99 23.712 241.949 C -49.61 239.16 -83.518 166.191 -83.746 165.367 C -80.608 158.62 -77.433 151.947 -74.222 145.356 C -73.58 145.055 3.103 86.969 68.277 139.353 Z M 126.557 -90.434 L 126.619 -90.432 C 149.969 -90.032 171.072 -83.22 189.338 -70.184 C 211.63 -54.271 229.23 -29.235 241.654 4.228 C 244.502 11.9 240.926 20.626 233.516 24.092 C 230.198 25.645 200.022 39.075 163.397 38.626 C 70.881 37.492 51.258 -59.396 51.247 -60.788 C 55.258 -66.202 59.231 -71.479 63.158 -76.616 C 71.592 -80.579 96.614 -90.974 126.557 -90.434 Z" style="stroke-width: 1.563;"/>
  </g>
</svg>