<?xml version="1.0" encoding="utf-8"?>
<svg width="40" height="40" viewBox="0 0 40 40" fill="none" xmlns="http://www.w3.org/2000/svg">
  <path d="M32.0845 7.94025V4H24.0203V7.9896H16.029V4H7.91553V7.94025H4V36H16.0044V32.0045C16.0058 30.9457 16.4274 29.9308 17.1766 29.1826C17.9258 28.4345 18.9412 28.0143 20 28.0143C21.0588 28.0143 22.0743 28.4345 22.8234 29.1826C23.5726 29.9308 23.9942 30.9457 23.9956 32.0045V36H36V7.94025H32.0845Z" style="fill: rgb(255, 199, 252);"/>
  <text style="font-size: 36px; font-family: Roboto; white-space: pre; stroke-width: 1;" x="-161.51" y="25.605">branch-svgrepo-com.svg</text>
  <text style="font-size: 36px; font-family: Roboto; white-space: pre; stroke-width: 1;" x="-159.19" y="20.863">branch-svgrepo-com.svg</text>
  <g id="Layer_1" style="" transform="matrix(0.02289, 0, 0, 0.02289, 20.009798, 18.72463)">
    <path style="fill: rgb(109, 200, 42); stroke-width: 1.563;" d="M -112.48 -258.86 C -113.34 -255.02 -120.63 -220.16 -111.51 -181.9 C -103.32 -147.58 -75.807 -89.273 16.537 -84.388 C 29.465 -83.706 41.148 -92.059 44.683 -104.51 C 45.726 -108.19 54.606 -141.49 45.593 -179.29 C 45.593 -179.29 45.592 -179.29 45.592 -179.29 C 39.6 -204.42 27.178 -225.62 8.67 -242.29 C -13.476 -262.25 -43.846 -275.03 -81.598 -280.27 C -95.895 -282.26 -109.32 -272.95 -112.48 -258.86 Z"/>
    <path style="fill: rgb(94, 172, 36); stroke-width: 1.563;" d="M -60.694 -215.62 C -66.468 -239.84 -65.666 -262.67 -64.08 -277.16 C -69.735 -278.38 -75.56 -279.44 -81.596 -280.28 C -95.895 -282.26 -109.32 -272.95 -112.48 -258.86 C -113.34 -255.02 -120.63 -220.17 -111.51 -181.91 C -103.32 -147.58 -75.807 -89.274 16.537 -84.39 C 29.465 -83.707 41.148 -92.06 44.683 -104.52 C 45.078 -105.91 46.593 -111.54 47.837 -120.05 C -28.965 -131.53 -53.118 -183.85 -60.694 -215.62 Z"/>
    <path style="fill: rgb(109, 200, 42); stroke-width: 1.563;" d="M -286.04 8.195 C -286.18 12.135 -286.9 47.734 -270.86 83.647 C -256.47 115.864 -218.65 168.08 -127 155.808 C -114.16 154.089 -104.23 143.719 -103.06 130.826 C -102.71 127.023 -100.14 92.654 -115.98 57.175 C -115.99 57.171 -115.99 57.17 -115.99 57.17 C -126.52 33.581 -142.65 15.046 -163.92 2.077 C -189.37 -13.438 -221.58 -20.38 -259.65 -18.555 C -274.07 -17.866 -285.55 -6.232 -286.04 8.195 Z"/>
    <path style="fill: rgb(94, 172, 36); stroke-width: 1.563;" d="M -220.05 49.929 C -232.5 22.059 -234.85 -5.612 -235.21 -18.455 C -243.07 -18.912 -251.21 -18.963 -259.65 -18.559 C -274.07 -17.868 -285.55 -6.232 -286.04 8.195 C -286.18 12.135 -286.9 47.734 -270.86 83.647 C -256.47 115.864 -218.65 168.08 -127 155.808 C -114.16 154.089 -104.23 143.719 -103.06 130.826 C -102.98 129.969 -102.79 127.544 -102.72 123.912 C -175.34 123.847 -207.14 78.842 -220.05 49.929 Z"/>
    <path style="fill: rgb(109, 200, 42); stroke-width: 1.563;" d="M 146.914 202.049 C 145.061 198.569 127.886 167.378 96.041 144.297 C 67.47 123.59 8.606 97.283 -64.63 153.739 C -74.885 161.645 -78.304 175.592 -72.871 187.344 C -71.268 190.809 -56.309 221.86 -24.849 244.664 C -24.847 244.666 -24.844 244.667 -24.844 244.667 C -3.925 259.828 19.307 267.816 44.214 268.411 C 74.015 269.122 105.38 259.028 137.438 238.413 C 149.578 230.603 153.7 214.788 146.914 202.049 Z"/>
    <path style="fill: rgb(94, 172, 36); stroke-width: 1.563;" d="M 64.295 215.564 C 39.389 214.97 16.156 206.983 -4.763 191.82 C -4.763 191.82 -4.765 191.819 -4.768 191.817 C -27.822 175.106 -42.007 153.98 -48.576 142.512 C -53.846 145.826 -59.198 149.548 -64.63 153.739 C -74.885 161.645 -78.304 175.592 -72.871 187.344 C -71.268 190.809 -56.309 221.858 -24.847 244.664 C -24.846 244.666 -24.843 244.667 -24.843 244.667 C -3.924 259.828 19.309 267.816 44.215 268.411 C 74.017 269.122 105.381 259.028 137.439 238.413 C 149.58 230.605 153.702 214.789 146.916 202.05 C 146.441 201.156 144.945 198.425 142.458 194.48 C 115.641 209.058 89.411 216.164 64.295 215.564 Z"/>
    <path style="fill: rgb(109, 200, 42); stroke-width: 1.563;" d="M 259.335 49.435 C 255.763 51.106 223.305 65.743 183.98 65.087 C 148.702 64.5 85.83 50.207 61.142 -38.907 C 57.686 -51.385 63.322 -64.593 74.722 -70.732 C 78.084 -72.543 108.686 -88.396 147.538 -87.751 C 147.541 -87.751 147.542 -87.751 147.542 -87.751 C 173.374 -87.321 196.75 -79.762 217.027 -65.29 C 241.29 -47.97 260.316 -21.071 273.582 14.662 C 278.607 28.195 272.41 43.317 259.335 49.435 Z"/>
    <path style="fill: rgb(94, 172, 36); stroke-width: 1.563;" d="M 215.688 12.243 C 182.056 11.682 123.35 -1.332 96.553 -79.748 C 84.347 -75.76 76.348 -71.606 74.723 -70.732 C 63.325 -64.593 57.687 -51.387 61.144 -38.907 C 85.833 50.207 148.703 64.501 183.981 65.087 C 223.308 65.742 255.766 51.106 259.336 49.435 C 272.411 43.318 278.608 28.195 273.583 14.662 C 272.291 11.179 270.926 7.807 269.526 4.493 C 255.79 8.568 236.724 12.593 215.688 12.243 Z"/>
    <path style="fill: rgb(160, 129, 92); stroke-width: 1.563;" d="M -172.68 408.382 C -174.53 408.382 -176.41 408.162 -178.3 407.707 C -191.06 404.61 -198.9 391.756 -195.81 378.993 C -172.2 281.614 -135.35 185.389 -86.288 92.99 C -47.102 19.185 -0.074 -52.363 53.487 -119.67 C 144.838 -234.46 222.775 -296.54 226.049 -299.13 C 236.35 -307.27 251.307 -305.52 259.451 -295.22 C 267.591 -284.92 265.844 -269.97 255.549 -261.82 C 254.754 -261.2 177.839 -199.78 89.809 -88.928 C 8.885 12.976 -98.335 178.82 -149.59 390.199 C -152.22 401.079 -161.96 408.381 -172.68 408.382 Z"/>
    <path style="fill: rgb(109, 200, 42); stroke-width: 1.563;" d="M 318.048 -366.02 C 314.138 -366.54 278.772 -370.67 241.488 -358.15 C 208.038 -346.92 152.438 -314.27 155.863 -221.87 C 156.342 -208.93 165.711 -198.04 178.433 -195.64 C 182.186 -194.93 216.15 -189.08 252.986 -201.45 C 252.99 -201.45 252.991 -201.45 252.991 -201.45 C 277.482 -209.67 297.477 -223.95 312.426 -243.88 C 330.312 -267.72 340.312 -299.12 342.146 -337.19 C 342.841 -351.61 332.36 -364.15 318.048 -366.02 Z"/>
    <path style="fill: rgb(94, 172, 36); stroke-width: 1.563;" d="M 287.991 -316.6 C 307.763 -323.24 326.996 -325.2 341.284 -325.49 C 341.652 -329.32 341.954 -333.2 342.146 -337.18 C 342.841 -351.6 332.362 -364.14 318.049 -366.02 C 314.14 -366.53 278.774 -370.66 241.49 -358.14 C 208.039 -346.91 152.439 -314.27 155.864 -221.86 C 156.344 -208.92 165.713 -198.04 178.435 -195.63 C 180.264 -195.29 189.292 -193.72 202.324 -193.64 C 204.46 -275.88 256.207 -305.93 287.991 -316.6 Z"/>
    <path d="M -55.94 38.817 C -50.227 42.882 -41.848 38.485 -39.613 34.787 C -32.233 22.568 -24.53 10.263 -16.722 -1.785 C -13.151 -7.298 -14.724 -14.659 -20.233 -18.23 C -25.743 -21.798 -33.107 -20.227 -36.679 -14.719 C -44.624 -2.46 -52.46 10.06 -59.969 22.492 C -63.365 28.112 -61.29 35.007 -55.94 38.817 Z" style="stroke-width: 1.563;"/>
    <path d="M 296.185 -242.88 C 292.379 -238.69 288.219 -234.81 283.824 -231.3 C 278.688 -227.21 278.316 -220.08 281.93 -214.59 C 287.057 -206.81 296.451 -210.96 298.638 -212.7 C 304.021 -216.99 309.109 -221.75 313.765 -226.86 C 318.188 -231.72 317.838 -239.24 312.984 -243.66 C 308.13 -248.08 300.608 -247.73 296.185 -242.88 Z" style="stroke-width: 1.563;"/>
    <path d="M 319.591 -377.81 C 315.402 -378.36 277.522 -382.79 237.702 -369.42 C 220.316 -363.58 195.45 -351.67 175.724 -328.07 C 156.308 -304.85 145.716 -275.19 144.075 -239.77 C 143.888 -239.6 143.699 -239.44 143.52 -239.26 C 115.402 -210.81 87.88 -180.27 61.429 -148.28 C 61.429 -148.28 73.826 -276.97 -79.959 -292.05 C -100.32 -294.05 -119.61 -281.43 -124.08 -261.46 C -125 -257.34 -132.81 -219.99 -123.07 -179.15 C -118.82 -161.31 -109.19 -135.47 -87.457 -113.71 C -64.877 -91.088 -34.266 -77.626 3.6 -73.537 C -1.385 -66.635 -6.301 -59.71 -11.129 -52.768 C -14.877 -47.376 -13.544 -39.966 -8.154 -36.218 C -6.085 -34.78 3.278 -32.024 8.396 -39.193 C 25.918 -63.731 43.909 -88.534 62.794 -112.26 C 89.65 -146.01 117.806 -178.26 146.675 -208.39 C 149.664 -200.72 154.983 -194.22 161.845 -189.75 C 133.681 -160.26 106.372 -128.9 80.5 -96.32 C -1.165 6.518 -109.38 173.917 -161.14 387.398 C -162.44 392.752 -167.41 397.738 -175.5 396.152 C -181.93 394.89 -185.8 388.165 -184.25 381.796 C -160.87 285.38 -124.38 190.084 -75.784 98.567 C -71.484 90.47 -67.029 82.287 -62.541 74.251 C -59.34 68.518 -61.393 61.275 -67.129 58.075 C -72.857 54.876 -80.107 56.926 -83.305 62.662 C -87.213 69.662 -91.077 76.764 -94.86 83.834 C -97.026 73.901 -114.03 -38.763 -260.22 -30.432 C -280.65 -29.266 -297.92 -12.676 -297.92 7.787 C -297.92 178.036 -142.19 169.261 -136.38 168.767 C -166.56 236.658 -190.37 306.119 -207.36 376.191 C -211.99 395.304 -199.98 413.752 -181.09 419.263 C -155.26 426.803 -141.92 409.056 -138.03 393.001 C -121.87 326.347 -100.07 264.268 -75.29 207.335 C 4.865 330.622 110.919 269.604 143.87 248.413 C 161.081 237.344 167.03 214.522 157.413 196.459 C 155.428 192.731 137.034 159.32 103.019 134.67 C 77.292 116.023 28.218 92.575 -33.535 120.822 C -5.041 67.162 25.192 19.498 54.151 -21.498 C 111.877 130.076 260.63 61.957 264.376 60.206 C 282.91 51.531 291.851 29.71 284.73 10.524 C 270.622 -27.477 250.168 -56.24 223.936 -74.967 C 201.658 -90.867 176.022 -99.17 147.739 -99.64 L 147.633 -99.64 C 134.128 -99.83 121.605 -98.223 110.667 -95.865 C 135.356 -126.1 161.255 -155.13 187.853 -182.43 C 224.963 -174.05 257.782 -190.55 258.307 -190.81 C 264.179 -193.75 265.893 -200.6 263.624 -206.76 C 260.105 -216.32 249.358 -212.77 249.358 -212.77 C 249.265 -212.74 249.172 -212.71 249.08 -212.68 C 214.128 -200.21 182.606 -206.95 180.636 -207.32 C 173.322 -208.71 168.019 -214.87 167.742 -222.31 C 164.758 -302.74 208.257 -334.44 245.269 -346.87 C 280.026 -358.54 312.866 -354.71 316.499 -354.23 C 324.613 -353.17 330.66 -345.93 330.266 -337.76 C 329.145 -314.45 324.777 -293.73 317.288 -276.16 C 314.713 -270.12 317.523 -263.13 323.565 -260.56 C 329.609 -257.98 336.59 -260.79 339.165 -266.84 C 347.762 -287.01 352.759 -310.49 354.018 -336.62 C 355.007 -357.06 339.884 -375.15 319.591 -377.81 Z M -99.94 -184.66 C -109.88 -219.94 -101.67 -252.69 -100.88 -256.26 C -99.08 -264.25 -91.338 -269.62 -83.232 -268.5 C -47.879 -263.59 -19.636 -251.8 0.71 -233.47 C 17.273 -218.54 28.44 -199.55 33.907 -177.03 L 34.025 -176.53 C 40.134 -150.9 37.331 -127.5 34.982 -115.37 C 30.104 -109.11 25.273 -102.8 20.493 -96.446 C 19.403 -96.273 -75.593 -98.215 -99.94 -184.66 Z M -260 78.798 C -275.98 45.781 -274.29 12.263 -274.16 8.603 C -273.88 0.424 -267.26 -6.29 -259.08 -6.682 C -223.44 -8.387 -193.5 -2.029 -170.11 12.229 C -150.93 23.918 -136.38 40.667 -126.84 62.015 L -126.77 62.167 C -115.85 86.714 -114.52 111.029 -114.59 122.184 C -117.99 129.076 -121.31 135.99 -124.57 142.919 C -125.85 143.453 -221.84 157.641 -260 78.798 Z M 89.061 153.925 C 117.639 176.895 134.698 204.405 136.419 207.635 C 140.264 214.86 137.888 223.985 131.005 228.41 C 100.983 247.717 71.826 257.561 44.497 256.521 C -28.826 253.732 -62.734 180.763 -62.962 179.939 C -59.824 173.192 -56.649 166.519 -53.438 159.928 C -52.796 159.627 23.887 101.54 89.061 153.925 Z M 147.341 -75.862 L 147.403 -75.86 C 170.753 -75.46 191.857 -68.648 210.122 -55.612 C 232.414 -39.699 250.015 -14.663 262.438 18.799 C 265.286 26.471 261.71 35.198 254.3 38.664 C 250.982 40.217 220.807 53.646 184.181 53.198 C 91.665 52.064 72.042 -44.824 72.031 -46.216 C 76.042 -51.631 80.015 -56.907 83.942 -62.045 C 92.376 -66.007 117.398 -76.403 147.341 -75.862 Z" style="stroke-width: 1.563;"/>
  </g>
</svg>